<?xml version="1.0" encoding="UTF-8"?><svg id="Layer_1" xmlns="http://www.w3.org/2000/svg" viewBox="0 0 524 163"><defs><style>.cls-1{fill:#faf1e4;}</style></defs><path class="cls-1" d="M94.46,35.28c-27.31,10.53-29.81,37.48-37.64,50.07-7.92,12.74-26.07,19.77-23.59,26.26,2.48,6.49,20.65-.48,35.03,3.66,14.21,4.09,34.03,22.45,61.34,11.92,13.91-5.36,23.98-16.4,28.62-29.47,.5-1.4-.43-2.9-1.91-3.04-.92-.09-1.8,.4-2.21,1.22-4.19,8.38-11.38,15.28-20.78,18.91-15.53,5.99-32.52,1.29-42.95-10.5-2.37-2.68-4.4-5.72-6-9.09-.44-.93-.86-1.87-1.23-2.84-.37-.97-.69-1.96-.98-2.94,8.21-3.84,17.68-7.91,28.42-12.05,10.53-4.06,20.11-7.35,28.64-9.98,5.77-1.78,11.06-3.26,15.84-4.47,.35-.09,.69-.17,1.03-.26,.72-.18,1.46,.21,1.73,.91h0c.16,.43,.29,.84,.44,1.26,.94,2.68,1.65,5.39,2.12,8.11,.21,1.19,1.5,1.84,2.56,1.26,3.92-2.11,7.51-4.17,10.71-6.16,11.94-7.38,18.56-13.65,17.2-17.19-1.36-3.55-10.45-3.75-24.24-1.22-4.38,.81-9.24,1.89-14.48,3.23-.91,.23-1.82,.47-2.75,.72-4.41,1.17-9.06,2.52-13.9,4.02-9,2.8-18.66,6.15-28.63,10-9.33,3.6-18.17,7.33-26.28,11.04-.1-15.77,9.4-30.68,24.92-36.66,9.4-3.62,19.35-3.33,28.04,.09,.86,.34,1.84,.1,2.46-.58,1-1.09,.7-2.83-.61-3.54-12.15-6.6-26.99-8.03-40.91-2.67Z"/><g><path class="cls-1" d="M231.69,122.26V41.87c0-1.08,.72-1.8,1.8-1.8h26.04c27.96,0,42.96,18.48,42.96,42s-15,42-42.96,42h-26.04c-1.08,0-1.8-.72-1.8-1.8Zm27.6-15c15.72,0,23.88-8.88,23.88-25.2s-8.16-25.2-23.88-25.2h-8.64v50.4h8.64Z"/><path class="cls-1" d="M303.21,122.02l27.84-80.52c.36-.96,1.32-1.44,2.28-1.44h16.32c.96,0,1.92,.48,2.28,1.44l27.84,80.52c.48,1.2-.12,2.04-1.44,2.04h-16.08c-.96,0-1.68-.36-2.04-1.44l-3.6-11.28h-30.24l-3.6,11.28c-.36,1.08-1.08,1.44-2.04,1.44h-15.96c-1.32,0-2.04-.84-1.56-2.04Zm48-27.48l-9.72-30.36-9.72,30.36h19.44Z"/><path class="cls-1" d="M383.02,82.42c0-24.36,19.44-43.32,43.2-43.32s43.32,18.96,43.32,43.32-19.44,43.2-43.32,43.2-43.2-18.96-43.2-43.2Zm43.2,24.6c13.68,0,24-10.68,24-24.6s-10.32-24.72-24-24.72-24,10.56-24,24.72,10.44,24.6,24,24.6Z"/></g></svg>